Coordinates
version=1
nRows=17
nColumns=40
inDegrees=yes

Units are S.I. units (second, meters, Newtons, ...)
If the header above contains a line with 'inDegrees', this indicates whether rotational values are in degrees (yes) or radians (no).

endheader
time	pelvis_tilt	pelvis_list	pelvis_rotation	pelvis_tx	pelvis_ty	pelvis_tz	hip_flexion_r	hip_adduction_r	hip_rotation_r	knee_angle_r	knee_angle_r_beta	ankle_angle_r	subtalar_angle_r	mtp_angle_r	hip_flexion_l	hip_adduction_l	hip_rotation_l	knee_angle_l	knee_angle_l_beta	ankle_angle_l	subtalar_angle_l	mtp_angle_l	lumbar_extension	lumbar_bending	lumbar_rotation	arm_flex_r	arm_add_r	arm_rot_r	elbow_flex_r	pro_sup_r	wrist_flex_r	wrist_dev_r	arm_flex_l	arm_add_l	arm_rot_l	elbow_flex_l	pro_sup_l	wrist_flex_l	wrist_dev_l
      4.96000000	    -26.28776573	     -0.62903646	     -1.39460375	     -0.39456993	      0.66958796	     -0.89819837	     80.36921863	    -11.19608236	     -5.90237481	     88.73707502	      1.54875413	     36.45682600	      0.00000000	      0.00000000	     79.70628275	    -18.20903212	     -2.83864588	     88.16791942	      1.53882049	     35.44859536	      0.00000000	      0.00000000	    -35.14091365	    -14.58528617	    -47.14897121	     35.73309617	    -21.82644150	     89.72569391	     79.70661890	      3.73233733	      0.00000000	      0.00000000	    -72.79039464	    -11.22344632	    -20.01781527	    117.93996878	     88.14430411	      0.00000000	      0.00000000
      4.96500000	    -25.71546405	     -0.57058593	     -1.22122298	     -0.39134651	      0.67616502	     -0.89882297	     78.89529302	    -11.49021658	     -6.15977733	     87.76645082	      1.53181354	     36.22976943	      0.00000000	      0.00000000	     78.16856886	    -17.95046237	     -3.21124998	     87.11246910	      1.52039941	     35.12839019	      0.00000000	      0.00000000	    -35.01260893	    -14.43517996	    -47.47036668	     35.78177862	    -21.60028563	     89.71836826	     79.33660892	      3.69836458	      0.00000000	      0.00000000	    -72.47553864	    -11.12465841	    -20.09415571	    117.41067862	     88.13536489	      0.00000000	      0.00000000
      4.97000000	    -25.62117105	     -0.53950772	     -1.24862038	     -0.38875861	      0.68184221	     -0.89879056	     77.98982357	    -11.48819553	     -6.40600879	     86.74768965	      1.51403280	     35.96802053	      0.00000000	      0.00000000	     77.23469789	    -17.87819085	     -3.43802547	     86.08889804	      1.50253472	     34.83780866	      0.00000000	      0.00000000	    -34.28917353	    -14.45806801	    -47.59697332	     35.66057642	    -21.53582034	     89.71933034	     79.23318867	      3.69028136	      0.00000000	      0.00000000	    -72.35746639	    -10.84762696	    -20.15360155	    117.25064604	     88.13125605	      0.00000000	      0.00000000
      4.97500000	    -25.63876812	     -0.90024412	     -0.97109890	     -0.38712815	      0.68768580	     -0.89817954	     77.09007874	    -11.38313363	     -6.85530302	     85.60246381	      1.49404484	     35.63758114	      0.00000000	      0.00000000	     76.64061828	    -17.81378630	     -3.37609965	     84.85166725	      1.48094097	     34.41217334	      0.00000000	      0.00000000	    -33.44504210	    -14.03972918	    -47.74397813	     35.63441967	    -21.34353311	     89.71471157	     79.08198957	      3.67579563	      0.00000000	      0.00000000	    -72.40305166	    -10.77703036	    -20.45505074	    117.15476893	     88.11741467	      0.00000000	      0.00000000
      4.98000000	    -25.13327289	     -0.79939054	     -1.26029341	     -0.38320689	      0.69452408	     -0.89828253	     75.62625222	    -11.26963467	     -7.12283497	     84.47392129	      1.47434806	     35.31442522	      0.00000000	      0.00000000	     75.07019055	    -18.03128672	     -3.88370492	     83.91984221	      1.46467755	     33.96335864	      0.00000000	      0.00000000	    -32.96175144	    -14.17977326	    -47.66528178	     35.55157744	    -21.08564728	     89.70407165	     78.36385132	      3.61244789	      0.00000000	      0.00000000	    -71.85146714	    -10.49137299	    -20.60747658	    116.42489103	     88.13133149	      0.00000000	      0.00000000
      4.98500000	    -25.04220869	     -0.70064189	     -1.27651518	     -0.38055078	      0.70098632	     -0.89824104	     74.66742454	    -11.32574389	     -7.37783931	     83.26547724	      1.45325673	     34.94718171	      0.00000000	      0.00000000	     74.03473872	    -17.91582012	     -4.23623489	     82.73680055	      1.44402958	     33.53124181	      0.00000000	      0.00000000	    -32.14962882	    -14.30614843	    -47.75134903	     35.34958626	    -21.07288234	     89.69529785	     78.28031044	      3.60538395	      0.00000000	      0.00000000	    -71.72487261	    -10.15468770	    -20.65879298	    116.29121462	     88.13060585	      0.00000000	      0.00000000
      4.99000000	    -24.41145254	     -0.85796581	     -1.13415064	     -0.37700969	      0.70888387	     -0.89830021	     72.87962287	    -11.35897538	     -7.83776819	     81.95072449	      1.43030997	     34.46903219	      0.00000000	      0.00000000	     72.38601408	    -17.90937262	     -4.59816732	     81.42346189	      1.42110750	     32.92415246	      0.00000000	      0.00000000	    -31.91677415	    -14.03545949	    -47.90521483	     35.29359799	    -20.73358805	     89.69439367	     77.60037026	      3.55373815	      0.00000000	      0.00000000	    -71.29078813	    -10.03999637	    -20.94777286	    115.64402469	     88.12203768	      0.00000000	      0.00000000
      4.99500000	    -24.18980081	     -0.78150944	     -1.12647431	     -0.37412836	      0.71630457	     -0.89828625	     71.65978157	    -11.39149172	     -8.13356247	     80.54790235	      1.40582610	     33.99649552	      0.00000000	      0.00000000	     71.09006527	    -17.83769094	     -5.11505424	     80.00220496	      1.39630189	     32.30329969	      0.00000000	      0.00000000	    -31.29910203	    -14.08568538	    -48.12102513	     35.17484454	    -20.53913253	     89.69352099	     77.36492599	      3.54047034	      0.00000000	      0.00000000	    -71.07612375	     -9.61334670	    -21.09641956	    115.30615199	     88.11669028	      0.00000000	      0.00000000
      5.00000000	    -23.79906219	     -0.67078638	     -1.13996357	     -0.37096437	      0.72417911	     -0.89818485	     70.23737438	    -11.43603475	     -8.40475696	     79.15292274	      1.38147911	     33.42551105	      0.00000000	      0.00000000	     69.57238863	    -17.76575804	     -5.65544130	     78.58932764	      1.37164252	     31.53668490	      0.00000000	      0.00000000	    -30.88133662	    -14.21601464	    -48.41424450	     35.04960091	    -20.27817104	     89.68736083	     76.89516975	      3.51141076	      0.00000000	      0.00000000	    -70.87987959	     -8.99555454	    -21.47287616	    114.83386660	     88.11149602	      0.00000000	      0.00000000
      5.00500000	    -23.83695351	     -0.01140135	     -1.66895449	     -0.36903294	      0.73166077	     -0.89772550	     69.62133595	    -11.19053484	     -7.84795060	     77.63876422	      1.35505206	     32.64183940	      0.00000000	      0.00000000	     68.25063786	    -17.84360237	     -6.92847236	     77.00032696	      1.34390923	     30.77900637	      0.00000000	      0.00000000	    -30.04070926	    -15.06269120	    -48.65105795	     35.03645013	    -20.00295256	     89.69039507	     76.73391317	      3.50428905	      0.00000000	      0.00000000	    -70.91485640	     -8.22560026	    -21.97245756	    114.71070250	     88.10553453	      0.00000000	      0.00000000
      5.01000000	    -23.22708862	     -0.28407776	     -1.26978109	     -0.36471409	      0.74066142	     -0.89796604	     67.59896792	    -11.48709891	     -8.75317297	     76.05892044	      1.32747859	     31.94270645	      0.00000000	      0.00000000	     66.52934612	    -17.66177920	     -7.22214869	     75.38253374	      1.31567341	     29.97189630	      0.00000000	      0.00000000	    -29.78019050	    -14.65378291	    -49.02756100	     34.80140545	    -19.77890466	     89.68433676	     76.28720868	      3.47524518	      0.00000000	      0.00000000	    -70.62488979	     -7.67854287	    -22.20745342	    114.14139344	     88.10603732	      0.00000000	      0.00000000
      5.01500000	    -23.21154424	      0.10376508	     -1.57933235	     -0.36273182	      0.74863157	     -0.89764307	     66.71240470	    -11.43529941	     -8.80650353	     74.39058158	      1.29836058	     31.19916892	      0.00000000	      0.00000000	     65.29294807	    -17.59195937	     -8.07761922	     73.74605295	      1.28711143	     29.16576360	      0.00000000	      0.00000000	    -28.91860975	    -15.18906235	    -49.20139638	     34.80262649	    -19.66510159	     89.67378864	     76.41164275	      3.49113247	      0.00000000	      0.00000000	    -70.68665732	     -7.00290239	    -22.44056473	    114.07437669	     88.10338099	      0.00000000	      0.00000000
      5.02000000	    -22.29068703	     -0.10209752	     -1.18960608	     -0.35825909	      0.75871701	     -0.89777238	     64.31493808	    -11.70851134	     -9.68836306	     72.66480698	      1.26824013	     30.23474123	      0.00000000	      0.00000000	     63.14778994	    -17.39371605	     -8.47677432	     71.98821646	      1.25643140	     27.98363038	      0.00000000	      0.00000000	    -29.04181315	    -14.87137467	    -49.63305158	     34.56104294	    -19.40613800	     89.67289864	     75.90563350	      3.45281277	      0.00000000	      0.00000000	    -70.45490396	     -6.35816703	    -22.93082657	    113.57632902	     88.10363889	      0.00000000	      0.00000000
      5.02500000	    -22.23061022	      0.39298271	     -1.41817321	     -0.35608124	      0.76756730	     -0.89771677	     63.35974284	    -11.78067234	     -9.61456169	     70.87965750	      1.23708340	     29.07712837	      0.00000000	      0.00000000	     61.73088713	    -17.16531690	     -9.56067492	     70.10054875	      1.22348538	     26.71830387	      0.00000000	      0.00000000	    -28.31217676	    -15.45910103	    -50.00621769	     34.58534190	    -19.23812081	     89.66449869	     75.90032504	      3.44906462	      0.00000000	      0.00000000	    -70.55734274	     -5.48366252	    -23.53644634	    113.52906110	     88.10570228	      0.00000000	      0.00000000
      5.03000000	    -21.78541810	      0.52649071	     -1.60966614	     -0.35236833	      0.77726502	     -0.89742480	     61.67530075	    -11.70457920	    -10.00368625	     68.95509248	      1.20349340	     28.01718224	      0.00000000	      0.00000000	     59.89004654	    -17.17822286	    -10.41217837	     68.24949829	      1.19117846	     25.55904020	      0.00000000	      0.00000000	    -27.68799561	    -15.72017435	    -49.94003456	     34.36724655	    -19.22920116	     89.66157121	     75.82051912	      3.43286958	      0.00000000	      0.00000000	    -70.43797951	     -4.96543245	    -23.80756973	    113.20769118	     88.10910592	      0.00000000	      0.00000000
      5.03500000	    -21.13630951	      0.66696377	     -1.54493970	     -0.34845398	      0.78775403	     -0.89771371	     59.68599630	    -11.90490186	    -10.56250781	     66.96979248	      1.16884338	     26.75540787	      0.00000000	      0.00000000	     57.81556544	    -16.90265867	    -11.16020972	     66.23239479	      1.15597336	     24.02800426	      0.00000000	      0.00000000	    -27.42739613	    -15.82284592	    -50.15545314	     34.20573516	    -19.23423345	     89.65676429	     75.76456816	      3.41496956	      0.00000000	      0.00000000	    -70.31839958	     -4.42750358	    -24.13366852	    112.93891298	     88.10217083	      0.00000000	      0.00000000
      5.04000000	    -20.96503848	      0.70822655	     -1.52767064	     -0.34520844	      0.79778853	     -0.89762437	     58.13471062	    -11.92150910	    -11.25549442	     64.77457408	      1.13052959	     25.69076133	      0.00000000	      0.00000000	     56.31864058	    -16.70581138	    -11.76609081	     64.10947406	      1.11892140	     22.76896180	      0.00000000	      0.00000000	    -26.58255829	    -15.91459684	    -50.23358131	     34.00530016	    -19.34141481	     89.64722190	     75.96957987	      3.42371936	      0.00000000	      0.00000000	    -70.37807449	     -3.83299913	    -24.29097346	    112.83316412	     88.09518085	      0.00000000	      0.00000000
